<svg width="120" height="120" viewBox="0 0 120 120" fill="none" xmlns="http://www.w3.org/2000/svg">
<path d="M120 16.3918V109.09C120 115.115 116.34 119.993 111.82 119.993H92.725V58.199L60 90.9223L27.275 58.199V120H8.18C7.10537 120 6.04127 119.718 5.0485 119.169C4.05573 118.621 3.15375 117.817 2.3941 116.804C1.63445 115.791 1.03202 114.588 0.621231 113.265C0.210442 111.941 -0.000655338 110.522 1.52826e-06 109.09V16.3918C1.52826e-06 2.90931 11.545 -4.78832 19.635 3.30252L27.275 10.9468L60 43.6568L92.725 10.9335L100.365 3.30252C108.45 -4.78166 120 2.90931 120 16.3918Z" fill="#8937CA"/>
</svg>
